<?xml version="1.0" encoding="UTF-8"?>
<svg width="235px" height="60px" viewBox="0 0 235 60" version="1.1" xmlns="http://www.w3.org/2000/svg" xmlns:xlink="http://www.w3.org/1999/xlink">
    <title>4F28E0FB-9924-4A43-833D-788DDB91FBDE</title>
    <defs>
        <polygon id="path-1" points="0 59.6922222 234.935095 59.6922222 234.935095 0 0 0"></polygon>
    </defs>
    <g id="Page-1" stroke="none" stroke-width="1" fill="none" fill-rule="evenodd">
        <g id="1280---BlocSide-Vision---V2" transform="translate(-375.000000, -1524.000000)">
            <g id="Group-18" transform="translate(375.000000, 1524.000000)">
                <path d="M62.3446421,39.9704074 L63.2954595,39.9704074 C65.7234198,39.9704074 67.8126817,39.6655926 67.8126817,36.6748519 C67.8126817,33.6863333 65.3541341,33.5648519 63.0809754,33.5648519 L62.3446421,33.5648519 L62.3446421,39.9704074 Z M62.3446421,30.1455926 L62.8963325,30.1455926 C65.1098087,30.1455926 66.1852135,29.505963 66.1852135,27.1270741 C66.1852135,24.7778148 64.8326579,24.165963 62.9284119,24.165963 L62.3446421,24.165963 L62.3446421,30.1455926 Z M57.8274198,20.5655926 L63.4498881,20.5655926 C67.7526262,20.5655926 70.3954437,22.2455926 70.3954437,26.820037 C70.3954437,28.4678148 69.8113008,30.3611481 68.3666103,31.2752222 C71.1015627,31.7637407 72.329904,34.5092963 72.329904,37.0418889 C72.329904,41.5563333 69.135023,43.5711481 64.9251659,43.5711481 L57.8274198,43.5711481 L57.8274198,20.5655926 Z" id="Fill-1" fill="#FFFFFF"></path>
                <polygon id="Fill-3" fill="#FFFFFF" points="86.4028976 39.6654815 92.7941516 39.6654815 92.7941516 43.571037 81.8856754 43.571037 81.8856754 20.5658519 86.4028976 20.5658519"></polygon>
                <path d="M104.868452,31.8551481 C104.868452,35.334037 107.818261,39.7573704 111.658833,39.7573704 C115.499777,39.7573704 118.44996,35.334037 118.44996,31.8551481 C118.44996,28.1332963 115.622126,24.3792222 111.658833,24.3792222 C107.695912,24.3792222 104.868452,28.1332963 104.868452,31.8551481 M100.198666,32.0384815 C100.198666,25.6007037 104.898293,19.9558889 111.658833,19.9558889 C118.419745,19.9558889 123.12161,25.6007037 123.12161,32.0384815 C123.12161,38.6273704 118.419745,44.1807037 111.658833,44.1807037 C104.898293,44.1807037 100.198666,38.6273704 100.198666,32.0384815" id="Fill-5" fill="#FFFFFF"></path>
                <path d="M147.886209,26.6688889 C146.628026,25.1425926 144.721542,24.2277778 142.785217,24.2277778 C138.452637,24.2277778 135.964248,28.192963 135.964248,32.16 C135.964248,36.0355556 138.544772,39.9088889 142.755002,39.9088889 C144.691701,39.9088889 146.628026,38.9022222 147.886209,37.47 L147.886209,42.8077778 C146.196447,43.6007407 144.506685,44.1807407 142.632653,44.1807407 C136.118677,44.1807407 131.294836,38.5977778 131.294836,32.2514815 C131.294836,25.7218519 135.934034,19.9559259 142.725161,19.9559259 C144.536899,19.9559259 146.318796,20.4440741 147.886209,21.2992593 L147.886209,26.6688889 Z" id="Fill-7" fill="#FFFFFF"></path>
                <path d="M168.842129,25.6304815 C167.981208,24.4708519 166.875589,23.7401111 165.368232,23.7401111 C163.925779,23.7401111 162.54301,24.8375185 162.54301,26.331963 C162.54301,30.2071481 171.729644,28.5915926 171.729644,36.3104815 C171.729644,40.9167778 168.842129,44.1808519 164.110049,44.1808519 C160.913676,44.1808519 158.577478,42.3515926 156.980224,39.6956667 L159.900192,36.8582593 C160.514176,38.6275185 162.143883,40.2156667 164.07797,40.2156667 C165.92216,40.2156667 167.060232,38.6597407 167.060232,36.8901111 C167.060232,34.5093704 164.846756,33.8375185 163.034644,33.1364074 C160.052756,31.9171481 157.871359,30.4204815 157.871359,26.8523333 C157.871359,23.0386296 160.729033,19.956037 164.631898,19.956037 C166.690946,19.956037 169.548621,20.9623333 170.961232,22.5182593 L168.842129,25.6304815 Z" id="Fill-9" fill="#FFFFFF"></path>
                <mask id="mask-2" fill="white">
                    <use xlink:href="#path-1"></use>
                </mask>
                <g id="Clip-12"></g>
                <polygon id="Fill-11" fill="#FFFFFF" mask="url(#mask-2)" points="181.163365 43.5711111 185.680587 43.5711111 185.680587 20.5659259 181.163365 20.5659259"></polygon>
                <path d="M200.552096,39.6654815 L201.288429,39.6654815 C206.851215,39.6654815 209.002398,36.6154815 209.002398,32.0680741 C209.002398,27.0651111 206.421874,24.471037 201.288429,24.471037 L200.552096,24.471037 L200.552096,39.6654815 Z M196.035247,20.5658519 L202.488421,20.5658519 C209.18704,20.5658519 213.67181,25.5388148 213.67181,32.0977037 C213.67181,38.5680741 209.062453,43.571037 202.456342,43.571037 L196.035247,43.571037 L196.035247,20.5658519 Z" id="Fill-13" fill="#FFFFFF" mask="url(#mask-2)"></path>
                <polygon id="Fill-14" fill="#FFFFFF" mask="url(#mask-2)" points="227.467914 24.4708889 227.467914 29.5357037 234.657795 29.5357037 234.657795 33.4412593 227.467914 33.4412593 227.467914 39.6653333 234.934946 39.6653333 234.934946 43.5708889 222.951065 43.5708889 222.951065 20.5657037 234.934946 20.5657037 234.934946 24.4708889"></polygon>
                <path d="M25.2337405,37.9333704 L21.9112881,43.2837407 L18.5895817,37.9333704 L-3.73015873e-05,37.9333704 C-3.73015873e-05,49.950037 9.80953413,59.6922593 21.9109151,59.6922593 C34.011923,59.6922593 43.8226135,49.950037 43.8226135,37.9333704 L25.2337405,37.9333704 Z" id="Fill-15" fill="#BE0A28" mask="url(#mask-2)"></path>
                <polygon id="Fill-16" fill="#162C5B" mask="url(#mask-2)" points="20.7535587 3.7037037e-05 7.46031746e-05 10.4467037 7.46031746e-05 35.6048519 20.7535587 35.6048519"></polygon>
                <polygon id="Fill-17" fill="#162C5B" mask="url(#mask-2)" points="23.0690548 3.7037037e-05 23.0690548 35.6048519 43.8225389 35.6048519 43.8225389 10.4467037"></polygon>
            </g>
        </g>
    </g>
</svg>